<?xml version="1.0" encoding="iso-8859-1"?>
<!-- Uploaded to: SVG Repo, www.svgrepo.com, Generator: SVG Repo Mixer Tools -->
<svg version="1.1" id="Layer_1" xmlns="http://www.w3.org/2000/svg" xmlns:xlink="http://www.w3.org/1999/xlink" 
	 viewBox="0 0 511.999 511.999" xml:space="preserve">
<polygon style="fill:#A8A8A8;" points="213.878,370.809 158.105,370.809 158.105,318.225 225.413,318.225 "/>
<path style="fill:#2969B0;" d="M495.697,309.288v99.028h-72.209v0.358h-219.11l0.095-0.358h-0.095l0.2-0.421l21.307-84.935h197.603
	V292.63h55.561C488.239,292.63,495.697,300.086,495.697,309.288z"/>
<path style="fill:#EBEBEB;" d="M423.487,113.841V322.96H225.884l37.325-148.773c8.897-35.474,40.785-60.346,77.352-60.346
	L423.487,113.841L423.487,113.841z"/>
<rect x="110.775" y="56.002" style="fill:#FFAC3D;" width="47.326" height="352.318"/>
<g>
	<circle style="fill:#EBEBEB;" cx="245.918" cy="411.296" r="44.697"/>
	<circle style="fill:#EBEBEB;" cx="456.783" cy="411.296" r="44.697"/>
</g>
<g>
	<path style="fill:#A8A8A8;" d="M423.487,275.634v47.326h-94.653v-25.682c0-11.958,9.686-21.644,21.644-21.644H423.487z"/>
	<path style="fill:#A8A8A8;" d="M397.804,180.978h25.679v94.653h-47.326v-73.006C376.157,190.671,385.848,180.978,397.804,180.978z"
		/>
</g>
<g>
	<path style="fill:#231F20;" d="M212.632,202.909c0.859,0.216,1.72,0.319,2.567,0.319c4.709,0,8.995-3.186,10.193-7.96l7.216-28.762
		c7.01-27.936,24.252-51.761,48.554-67.088c4.912-3.098,6.384-9.594,3.285-14.506c-3.098-4.914-9.594-6.383-14.506-3.285
		c-28.898,18.226-49.402,46.551-57.734,79.76l-7.216,28.762C203.577,195.783,206.998,201.496,212.632,202.909z"/>
	<path style="fill:#231F20;" d="M202.142,244.723c0.859,0.216,1.72,0.319,2.566,0.319c4.709,0,8.995-3.186,10.193-7.96l0.704-2.805
		c1.412-5.634-2.009-11.347-7.643-12.76c-5.636-1.41-11.347,2.009-12.76,7.643l-0.704,2.805
		C193.087,237.596,196.508,243.309,202.142,244.723z"/>
	<path style="fill:#231F20;" d="M245.921,400.783c-5.799,0-10.517,4.718-10.517,10.517c0,5.799,4.718,10.517,10.517,10.517
		s10.517-4.718,10.517-10.517C256.438,405.501,251.72,400.783,245.921,400.783z"/>
	<path style="fill:#231F20;" d="M506.214,386.732v-77.444c0-14.985-12.186-27.176-27.165-27.176h-45.044V113.841
		c0-5.809-4.708-10.517-10.517-10.517h-82.926c-41.463,0-77.466,28.088-87.553,68.303l-34.14,136.079h-50.246V56.002
		c0-5.809-4.708-10.517-10.517-10.517h-47.326c-5.809,0-10.517,4.708-10.517,10.517V445.48H10.517C4.708,445.48,0,450.188,0,455.997
		c0,5.809,4.708,10.517,10.517,10.517h100.261c5.809,0,10.517-4.708,10.517-10.517v-37.16h36.809
		c5.809,0,10.517-4.708,10.517-10.517v-26.994h30.966c-5.608,8.64-8.881,18.928-8.881,29.973c0,30.446,24.768,55.214,55.214,55.214
		c27.766,0,50.8-20.604,54.641-47.323h101.582c3.842,26.719,26.876,47.323,54.641,47.323c30.446,0,55.214-24.768,55.214-55.214
		C512,402.477,509.909,394.137,506.214,386.732z M386.674,265.114v-62.489c0-6.138,4.993-11.13,11.13-11.13h15.162v73.619H386.674
		L386.674,265.114z M412.969,286.151v26.292h-73.619v-15.165c0-6.136,4.991-11.127,11.127-11.127H412.969z M340.56,124.359h72.409
		v46.102h-15.165c-17.736,0-32.164,14.429-32.164,32.164v62.492h-15.162c-17.734,0-32.161,14.427-32.161,32.161v15.165h-78.952
		l6.265-24.973l49.296-39.879l0.263,0.394c2.027,3.04,5.362,4.684,8.761,4.684c2.005,0,4.031-0.572,5.824-1.768
		c4.834-3.221,6.139-9.751,2.916-14.584l-6.597-9.895c-0.003-0.005-0.007-0.011-0.011-0.016l-6.714-10.071
		c-3.221-4.833-9.75-6.14-14.584-2.916c-4.834,3.221-6.139,9.751-2.916,14.584l1.342,2.012l-29.063,23.511l19.263-76.78
		C281.146,145.901,308.76,124.359,340.56,124.359z M147.588,397.803h-26.292V66.519h26.292V397.803z M168.621,328.742h44.968
		l-7.915,31.551h-37.053V328.742z M245.921,445.48c-18.846,0-34.18-15.334-34.18-34.18c0-18.846,15.334-34.18,34.18-34.18
		s34.18,15.334,34.18,34.18C280.101,430.146,264.767,445.48,245.921,445.48z M403.165,398.157H299.542
		c-5.913-24.12-27.705-42.071-53.621-42.071c-6.409,0-12.561,1.11-18.289,3.127l6.456-25.734h189.398
		c5.809,0,10.517-4.708,10.517-10.517v-19.814h45.044c3.381,0,6.131,2.755,6.131,6.142v54.678c-8.302-4.999-18.017-7.88-28.394-7.88
		C430.87,356.086,409.078,374.038,403.165,398.157z M456.786,445.48c-18.846,0-34.18-15.334-34.18-34.18
		c0-18.846,15.334-34.18,34.18-34.18c18.846,0,34.18,15.334,34.18,34.18C490.966,430.146,475.632,445.48,456.786,445.48z"/>
	<path style="fill:#231F20;" d="M456.786,400.783c-5.799,0-10.517,4.718-10.517,10.517c0,5.799,4.718,10.517,10.517,10.517
		c5.799,0,10.517-4.718,10.517-10.517C467.303,405.501,462.585,400.783,456.786,400.783z"/>
	<path style="fill:#231F20;" d="M371.248,356.086h-8.414c-5.809,0-10.517,4.708-10.517,10.517c0,5.809,4.708,10.517,10.517,10.517
		h8.414c5.809,0,10.517-4.708,10.517-10.517C381.765,360.794,377.057,356.086,371.248,356.086z"/>
</g>
</svg>